<?xml version="1.0" standalone="no"?>
<!DOCTYPE svg PUBLIC "-//W3C//DTD SVG 20010904//EN" "http://www.w3.org/TR/2001/REC-SVG-20010904/DTD/svg10.dtd">
<svg version="1.0" xmlns="http://www.w3.org/2000/svg" width="714pt" height="728pt" viewBox="0 0 714 728" preserveAspectRatio="xMidYMid meet">
<g transform="translate(0,728) scale(.7,-.7)" fill="#000000" stroke="none">
<path d="M197 1013 c-4 -3 -7 -62 -7 -130 l0 -123 83 0 82 0 175 -368 176
-367 139 0 140 0 0 125 0 125 -54 5 -54 5 -175 368 -175 367 -162 0 c-89 0
-165 -3 -168 -7z m483 -406 l175 -367 47 0 48 0 0 -90 0 -90 -108 0 -109 0
-175 368 -175 367 -77 3 -76 3 0 90 0 90 137 -3 138 -3 175 -368z"/>
<path d="M303 618 c-22 -36 -273 -571 -273 -584 0 -12 23 -14 146 -12 l147 3
74 158 74 157 -70 145 c-38 80 -74 145 -80 145 -5 0 -13 -6 -18 -12z m70 -165
c26 -54 47 -105 47 -113 0 -8 -28 -75 -62 -147 l-63 -133 -108 0 c-60 0 -106
3 -104 8 2 4 55 114 117 245 62 130 116 237 120 237 4 0 28 -44 53 -97z"/>
</g>
</svg>
